<svg width="32" height="32" viewBox="0 0 32 32" fill="none" xmlns="http://www.w3.org/2000/svg">
<path d="M29.3337 5H2.66699C2.12033 5 1.66699 4.54667 1.66699 4C1.66699 3.45333 2.12033 3 2.66699 3H29.3337C29.8803 3 30.3337 3.45333 30.3337 4C30.3337 4.54667 29.8803 5 29.3337 5Z" fill="white" fill-opacity="0.6"/>
<path d="M14.667 13H2.66699C2.12033 13 1.66699 12.5467 1.66699 12C1.66699 11.4533 2.12033 11 2.66699 11H14.667C15.2137 11 15.667 11.4533 15.667 12C15.667 12.5467 15.2137 13 14.667 13Z" fill="white" fill-opacity="0.6"/>
<path d="M10.667 21H2.66699C2.12033 21 1.66699 20.5467 1.66699 20C1.66699 19.4533 2.12033 19 2.66699 19H10.667C11.2137 19 11.667 19.4533 11.667 20C11.667 20.5467 11.2137 21 10.667 21Z" fill="white" fill-opacity="0.6"/>
<path d="M8.00033 29H2.66699C2.12033 29 1.66699 28.5467 1.66699 28C1.66699 27.4533 2.12033 27 2.66699 27H8.00033C8.54699 27 9.00033 27.4533 9.00033 28C9.00033 28.5467 8.54699 29 8.00033 29Z" fill="white" fill-opacity="0.6"/>
<path d="M15.7865 30.3333C13.6399 30.3333 11.8799 28.5867 11.8799 26.4267C11.8799 24.28 13.6265 22.52 15.7865 22.52C17.9465 22.52 19.6932 24.2667 19.6932 26.4267C19.6932 28.5867 17.9465 30.3333 15.7865 30.3333ZM15.7865 24.5334C14.7332 24.5334 13.8799 25.3867 13.8799 26.44C13.8799 27.4934 14.7332 28.3467 15.7865 28.3467C16.8399 28.3467 17.6932 27.4934 17.6932 26.44C17.6932 25.3867 16.8399 24.5334 15.7865 24.5334Z" fill="white" fill-opacity="0.6"/>
<path d="M18.6934 27.4268C18.1467 27.4268 17.6934 26.9734 17.6934 26.4268V14.7334C17.6934 13.1201 18.6534 11.8535 20.2134 11.4401L26.0134 9.85346C27.28 9.50679 28.3734 9.6401 29.1467 10.2401C29.92 10.8401 30.32 11.8134 30.32 13.1601V24.5068C30.32 25.0534 29.8667 25.5068 29.32 25.5068C28.7734 25.5068 28.32 25.0534 28.32 24.5068V13.1601C28.32 12.4934 28.1867 12.0268 27.9334 11.8401C27.68 11.6401 27.16 11.6267 26.5334 11.8001L20.7334 13.3867C20.3467 13.4934 19.6934 13.8134 19.6934 14.7601V26.4535C19.6934 26.9868 19.24 27.4268 18.6934 27.4268Z" fill="white" fill-opacity="0.6"/>
<path d="M26.4272 28.4002C24.2805 28.4002 22.5205 26.6536 22.5205 24.4936C22.5205 22.3469 24.2672 20.5869 26.4272 20.5869C28.5872 20.5869 30.3338 22.3336 30.3338 24.4936C30.3338 26.6536 28.5872 28.4002 26.4272 28.4002ZM26.4272 22.6003C25.3738 22.6003 24.5205 23.4536 24.5205 24.5069C24.5205 25.5603 25.3738 26.4136 26.4272 26.4136C27.4805 26.4136 28.3338 25.5603 28.3338 24.5069C28.3338 23.4536 27.4805 22.6003 26.4272 22.6003Z" fill="white" fill-opacity="0.6"/>
<path d="M18.6939 19.1332C18.2539 19.1332 17.8539 18.8399 17.7339 18.3999C17.5872 17.8666 17.9072 17.3199 18.4405 17.1732L29.0805 14.2666C29.6139 14.1199 30.1605 14.4399 30.3072 14.9732C30.4539 15.5065 30.1339 16.0533 29.6005 16.1999L18.9605 19.1066C18.8672 19.1199 18.7739 19.1332 18.6939 19.1332Z" fill="white" fill-opacity="0.6"/>
</svg>
